<?xml version="1.0" encoding="UTF-8"?>
<svg width="157px" height="59px" viewBox="0 0 157 59" version="1.1" xmlns="http://www.w3.org/2000/svg" xmlns:xlink="http://www.w3.org/1999/xlink">
    <title>Airplane</title>
    <g id="Airplane" stroke="none" stroke-width="1" fill="none" fill-rule="evenodd">
        <g id="Group" transform="translate(78.500000, 29.500000) scale(-1, 1) translate(-78.500000, -29.500000) " fill-rule="nonzero">
            <path d="M154.6,26 C153.9,24.7 152.4,23.2 149.3,23.2 C140.9,23.2 126.3,34.6 123.6,36.6 L102.4,31 L88.1,22.5 C87.8,22.3 87.5,22.3 87.2,22.5 C86.9,22.6 86.7,22.9 86.7,23.2 C86.7,23.3 86.2,25.4 83.9,27 C83.3,27.4 82.4,27.7 81.2,27.7 C79.9,27.7 78.6,27.4 77.8,27.2 L80.1,21.3 C80.2,20.9 80.2,20.5 79.9,20.3 C79.6,20 79.2,19.9 78.9,20.1 L71,23 L64.2,22 L63.6,15.7 C65.2,15.9 66.6,16 67.8,16 C68.8,16 69.5,15.9 69.7,15.7 L70.2,14.8 C70.1,14.1 70.1,13.7 59.9,9.8 C59.1,8.3 58,6.7 56.5,5.5 C53,2.9 32.3,-5.68434189e-14 32.3,-5.68434189e-14 C31.1,0.2 32.1,2.6 33.5,5 L35,18 L10,14.5 C9.9,14.5 9.8,14.5 9.7,14.5 C8.3,14.5 7.2,16.3 6.4,20.3 C6.4,20.4 3.9,33.2 6.6,34.4 C6.7,34.4 6.7,34.4 6.8,34.5 L25.7,38.7 C26.1,38.8 26.6,38.6 26.8,38.2 L27,37.8 L27.6,38 C28,38.1 29.7,38.5 32.3,39.1 L32.6,43.4 C29.3,44.2 26.8,47.2 26.8,50.8 C26.8,55 30.2,58.5 34.5,58.5 C38.7,58.5 42.2,55.1 42.2,50.8 C42.2,50.2 42.1,49.6 42,49 L51.7,43.2 C58.2,44.5 63.7,45.6 64.6,45.6 C65.5,45.6 77.3,46.5 90.9,47.5 C112.3,49.1 139,51 144.6,51.2 L144.9,51.2 C148.6,51.2 151.8,49.1 154,45.4 C157.4,39.4 157.6,31.6 154.6,26 Z M60.9,12.3 C62.4,12.9 63.8,13.5 65.1,14 C63.8,13.9 62.1,13.7 60.3,13.5 C60.8,13.4 61.3,13.4 61.3,13.4 C61.3,13.4 61.2,13 60.9,12.3 Z M125.9,50.3 C127.9,50.3 129.5,51.9 129.5,53.9 C129.5,55.9 127.9,57.5 125.9,57.5 C123.9,57.5 122.3,55.9 122.3,53.9 C122.3,51.9 123.9,50.3 125.9,50.3 Z M55.6,14.7 C56.9,15 58.9,15.2 60.9,15.5 L61.5,21.7 L55.8,20.9 L55.4,14.7 L55.6,14.7 Z" id="Shape" stroke="#000000" fill="#D8D6CD"></path>
            <path d="M5.7,19.2 C5.7,19.2 4.8,19.5 3.8,20 C4.1,16 4.5,9.9 4.2,9.3 C3.7,9.8 2.6,17.2 2,21.1 C1.2,21.8 0.6,22.7 0.8,23.7 C0.9,24.3 1.2,24.8 1.5,25.3 C1.2,29 0.6,37 0.9,37.7 C1.3,37.2 2.3,31.1 3,27.1 C3.9,27.9 4.7,28.3 4.7,28.3 C4.7,28.3 3.5,24.4 5.7,19.2 Z" id="Path" fill="#000000"></path>
            <path d="M126.900024,53.899994 C126.900024,54.4522787 126.452309,54.899994 125.900024,54.899994 C125.347739,54.899994 124.900024,54.4522787 124.900024,53.899994 C124.900024,53.3477093 125.347739,52.899994 125.900024,52.899994 C126.452309,52.899994 126.900024,53.3477093 126.900024,53.899994 Z" id="Path" fill="#000000"></path>
            <path d="M36.199994,50.600006 C36.199994,51.0773957 36.0103517,51.5352327 35.6727862,51.8727982 C35.3352207,52.2103637 34.8773837,52.400006 34.399994,52.400006 C33.4058815,52.400006 32.599994,51.5941185 32.599994,50.600006 C32.599994,49.6058935 33.4058815,48.800006 34.399994,48.800006 C34.8773837,48.800006 35.3352207,48.9896483 35.6727862,49.3272138 C36.0103517,49.6647793 36.199994,50.1226163 36.199994,50.600006 L36.199994,50.600006 Z" id="Path" fill="#000000"></path>
            <path d="M100.5,32.7 L95.6,30.6 C95.6,30.6 94.2,31.7 92.6,32 C91.1,32.3 79.8,31.7 79.8,31.7 C79.8,31.7 93.9,33.5 100.5,32.7 Z" id="Path" fill="#E91111"></path>
            <polygon id="Path" fill="#E91111" points="66.7000122 41.6000061 122.900024 46.8999939 122.900024 44.8999939 114.099976 43.8999939"></polygon>
            <path d="M37.3,46.8 C37.1,46.6 36.9,46.4 36.6,46.2 C36.3,46.1 35.9,45.9 35.5,45.7 C35.1,45.6 34.8,45.5 34.3,45.5 C33.9,45.5 33.4,45.5 32.9,45.7 C32.4,45.8 32,46.1 31.6,46.3 C31.2,46.6 30.8,46.9 30.6,47.3 C30.3,47.7 30.1,48.1 29.9,48.5 C29.7,48.9 29.6,49.4 29.6,49.8 C29.6,50.2 29.5,50.6 29.6,50.9 C29.7,51.3 29.7,51.6 29.8,51.8 C29.9,52.1 30,52.2 30.1,52.4 C30.3,52.7 30.4,52.9 30.4,52.9 C30.4,52.9 30.3,52.7 30.3,52.3 C30.3,52.1 30.2,51.9 30.1,51.6 C30.1,51.3 30.1,51.1 30.1,50.8 C30,50.5 30.2,50.2 30.2,49.8 C30.3,49.4 30.4,49.2 30.6,48.8 C30.8,48.5 31,48.1 31.3,47.9 C31.5,47.6 31.9,47.4 32.2,47.1 C32.6,46.9 32.9,46.7 33.3,46.6 C33.7,46.5 34,46.4 34.4,46.4 C34.7,46.4 35.2,46.4 35.5,46.4 C35.8,46.5 36.1,46.6 36.4,46.6 C36.7,46.7 36.9,46.9 37.2,47 C37.5,47.1 37.6,47.3 37.8,47.4 C38.1,47.6 38.3,47.8 38.3,47.8 C38.3,47.8 38.2,47.6 37.9,47.3 C37.7,47.2 37.6,47 37.3,46.8 Z" id="Path" fill="#000000"></path>
        </g>
    </g>
</svg>