<?xml version="1.0" encoding="UTF-8"?>
<svg width="428px" height="926px" viewBox="0 0 428 926" version="1.1" xmlns="http://www.w3.org/2000/svg" xmlns:xlink="http://www.w3.org/1999/xlink">
    <title>Slice</title>
    <defs>
        <linearGradient x1="50%" y1="91.6638781%" x2="50%" y2="21.6002138%" id="linearGradient-1">
            <stop stop-color="#00A8EC" offset="0%"></stop>
            <stop stop-color="#000000" offset="100%"></stop>
        </linearGradient>
        <filter x="-25.6%" y="-25.6%" width="151.2%" height="151.2%" filterUnits="objectBoundingBox" id="filter-2">
            <feGaussianBlur stdDeviation="7" in="SourceGraphic"></feGaussianBlur>
        </filter>
    </defs>
    <g id="BackgroundDark" stroke="none" stroke-width="1" fill="none" fill-rule="evenodd">
        <g id="Group-3">
            <g id="Group-2">
                <rect id="Rectangle" fill="url(#linearGradient-1)" x="0" y="0" width="428" height="926"></rect>
                <circle id="Oval" fill="#FAFD0F" opacity="0.749889555" filter="url(#filter-2)" cx="356" cy="824" r="41"></circle>
                <rect id="Rectangle" fill="#B5651E" x="0" y="836" width="428" height="90"></rect>
                <rect id="Rectangle" fill="#000000" x="25" y="865" width="299" height="42"></rect>
            </g>
            <g id="Group" transform="translate(44.000000, 883.000000)" fill="#FFFFFF">
                <rect id="Rectangle" x="46" y="0" width="32" height="6"></rect>
                <rect id="Rectangle" x="92" y="0" width="32" height="6"></rect>
                <rect id="Rectangle" x="137" y="0" width="32" height="6"></rect>
                <rect id="Rectangle" x="183" y="0" width="32" height="6"></rect>
                <rect id="Rectangle" x="229" y="0" width="32" height="6"></rect>
                <rect id="Rectangle" x="0" y="0" width="32" height="6"></rect>
            </g>
            <g id="Group" opacity="0.656772432" transform="translate(73.000000, 264.000000)" fill="#FFFFFF">
                <ellipse id="Oval" cx="55" cy="45" rx="23" ry="20"></ellipse>
                <ellipse id="Oval" cx="23" cy="45" rx="23" ry="20"></ellipse>
                <ellipse id="Oval" cx="40" cy="25" rx="23" ry="20"></ellipse>
                <ellipse id="Oval" cx="83" cy="20" rx="23" ry="20"></ellipse>
                <ellipse id="Oval" cx="123" cy="25" rx="23" ry="20"></ellipse>
                <ellipse id="Oval" cx="134" cy="45" rx="23" ry="20"></ellipse>
                <ellipse id="Oval" cx="102" cy="42" rx="23" ry="20"></ellipse>
                <ellipse id="Oval" cx="78" cy="40" rx="23" ry="20"></ellipse>
            </g>
            <g id="Group" opacity="0.704204596" transform="translate(191.000000, 108.000000)" fill="#FFFFFF">
                <ellipse id="Oval" cx="87.5" cy="67.5" rx="27.5" ry="30.5"></ellipse>
                <ellipse id="Oval" cx="49.5" cy="67.5" rx="27.5" ry="30.5"></ellipse>
                <ellipse id="Oval" cx="69.5" cy="37.5" rx="27.5" ry="30.5"></ellipse>
                <ellipse id="Oval" cx="119.5" cy="30.5" rx="27.5" ry="30.5"></ellipse>
                <ellipse id="Oval" cx="167.5" cy="37.5" rx="27.5" ry="30.5"></ellipse>
                <ellipse id="Oval" cx="27.5" cy="43.5" rx="27.5" ry="30.5"></ellipse>
                <ellipse id="Oval" cx="179.5" cy="67.5" rx="27.5" ry="30.5"></ellipse>
                <ellipse id="Oval" cx="141.5" cy="63.5" rx="27.5" ry="30.5"></ellipse>
                <ellipse id="Oval" cx="114.5" cy="60.5" rx="27.5" ry="30.5"></ellipse>
            </g>
            <g id="Group" opacity="0.710846674" transform="translate(25.000000, 44.000000)" fill="#FFFFFF">
                <ellipse id="Oval" cx="93.5" cy="38" rx="29.5" ry="19"></ellipse>
                <ellipse id="Oval" cx="53.5" cy="38" rx="29.5" ry="19"></ellipse>
                <ellipse id="Oval" cx="73.5" cy="19" rx="29.5" ry="19"></ellipse>
                <ellipse id="Oval" cx="29.5" cy="23" rx="29.5" ry="19"></ellipse>
                <ellipse id="Oval" cx="122.5" cy="33" rx="29.5" ry="19"></ellipse>
            </g>
            <g id="Group" transform="translate(349.000000, 777.000000)" fill-rule="nonzero">
                <g>
                    <polygon id="Path" fill="#AFB090" points="54.5954254 9.86029412 4.80916031 9.86029412 12.9618265 0.383462569 46.4427593 0.383462569"></polygon>
                    <polygon id="Path" fill="#505654" points="11.5877808 28.2113971 47.7709869 28.2113971 47.7709869 30.2382353 11.5877808 30.2382353"></polygon>
                    <polygon id="Path" fill="#505654" points="5.49618321 31.059933 53.9083956 31.059933 53.9083956 41.5228012 5.49618321 41.5228012"></polygon>
                    <polygon id="Path" fill="#8B957D" points="40.9923664 61.4077072 46.4427593 136.565067 12.9618265 136.565067 18.4122193 61.4077072 8.4274921 43.1114037 50.9770936 43.1114037"></polygon>
                    <path d="M4.80916031,10.6819853 L12.9618321,27.3897059 L46.4427481,27.3897059 L54.5954198,10.6819853 L4.80916031,10.6819853 Z M20.1068702,25.5272059 L13.9694656,25.5272059 L7.3740458,12.4897059 L20.0610687,12.4897059 L20.0610687,25.5272059 L20.1068702,25.5272059 Z M36.9618321,25.5272059 L22.4427481,25.5272059 L22.4427481,12.4897059 L36.9618321,12.4897059 L36.9618321,25.5272059 Z M45.5267176,25.5272059 L39.389313,25.5272059 L39.389313,12.4897059 L52.0763359,12.4897059 L45.5267176,25.5272059 Z" id="Shape" fill="#8B957D"></path>
                    <path d="M58.1221374,148.506985 L1.83206107,148.506985 C0.824427481,148.506985 0.0458015267,147.520956 0.0458015267,146.370588 L0.0458015267,139.249265 C0.0458015267,138.044118 0.870229008,137.112868 1.83206107,137.112868 L58.1221374,137.112868 C59.129771,137.112868 59.9083969,138.098897 59.9083969,139.249265 L59.9083969,146.370588 C59.9083969,147.575735 59.129771,148.506985 58.1221374,148.506985 Z" id="Path" fill="#818975"></path>
                </g>
                <g transform="translate(30.000000, 0.000000)">
                    <polygon id="Path" fill="#414443" points="0.3571375 28.222 17.9910661 28.222 17.9910661 30.2496 0.3571375 30.2496"></polygon>
                    <polygon id="Path" fill="#818975" points="21.116066 43.1276067 11.3839286 61.4307866 16.6964395 136.616393 0.357137408 136.616393 0.357137408 43.1276067"></polygon>
                    <polygon id="Path" fill="#494C4B" points="0.3571375 31.0716066 23.9732094 31.0716066 23.9732094 41.5384071 0.3571375 41.5384071"></polygon>
                    <polygon id="Path" fill="#A5A588" points="0.357137408 9.864 0.357137408 0.383606689 16.6964395 0.383606689 24.6428626 9.864"></polygon>
                    <path d="M0.357142857,10.686 L0.357142857,12.4944 L7.45535714,12.4944 L7.45535714,25.5368 L0.357142857,25.5368 L0.357142857,27.3452 L16.6517857,27.3452 L24.5982143,10.6312 L0.357142857,10.6312 L0.357142857,10.686 Z M15.8035714,25.5368 L9.82142857,25.5368 L9.82142857,12.4944 L22.1875,12.4944 L15.8035714,25.5368 Z" id="Shape" fill="#818976"></path>
                </g>
            </g>
            <g id="Shape-2" transform="translate(43.500000, 830.000000) scale(-1, 1) translate(-43.500000, -830.000000) translate(4.000000, 809.000000)" fill="#534040" fill-rule="nonzero">
                <path d="M72.7790049,13.0456195 C72.8760923,12.072493 73.3129858,8.52058106 73.0702672,7.59611084 C72.7790049,6.57432796 72.1964802,4.77404384 69.9149253,5.79582672 C68.0217202,6.62298428 64.7207472,11.1966791 63.6042416,12.7536816 C62.827542,12.5590562 62.0993862,12.4130873 61.5168616,12.3157746 C58.1188011,11.5859297 17.390619,1.56272622 17.390619,1.56272622 C17.390619,1.56272622 9.38090498,-0.578152197 5.59449473,0.151692717 C5.59449473,0.151692717 -2.07541322,1.31944458 0.545947723,2.04928949 C0.982841214,2.19525847 2.63332774,2.63316542 5.15760124,3.36301034 L5.15760124,3.36301034 L9.28381754,13.1429322 C6.51682543,13.6781518 3.94400821,14.5053094 5.20614496,15.2351543 C6.17701938,15.7703739 8.89546777,17.27872 11.6624599,18.7870662 C11.5653724,18.8357225 11.468285,18.8843788 11.3711976,18.9330352 C10.7886729,19.2249731 10.3032357,19.6628801 9.91488592,20.0521307 C9.1867301,20.8792883 8.79838033,21.8037585 8.55566172,22.5336034 C8.45857428,22.922854 8.36148684,23.2634483 8.36148684,23.5553863 C8.31294312,23.8473242 8.31294312,24.1392622 8.31294312,24.3338875 C8.31294312,24.7717945 8.31294312,25.0150761 8.31294312,25.0150761 C8.31294312,25.0150761 8.36148684,24.7717945 8.45857428,24.3338875 C8.507118,24.1392622 8.55566172,23.8473242 8.70129289,23.5553863 C8.79838033,23.2634483 8.94401149,22.922854 9.08964266,22.5822597 C9.38090498,21.9010711 9.8663422,21.0739136 10.5459543,20.392725 C10.8857603,20.0521307 11.3226538,19.7601927 11.7595473,19.5169111 C12.0022659,19.4195984 12.2449845,19.3222858 12.4877031,19.2736295 C13.215859,19.6628801 13.9440148,20.100787 14.6721706,20.4413813 C14.5750832,20.4413813 14.5265394,20.392725 14.429452,20.392725 C14.1381897,20.3440687 13.7012962,20.392725 13.4585776,20.4413813 L13.2644027,20.4900376 C13.1673152,20.538694 13.1187715,20.538694 13.0702278,20.5873503 C12.9245966,20.6360066 12.8275092,20.684663 12.7304217,20.7333193 C12.5362469,20.8306319 12.3906157,20.9766009 12.2935283,21.0739136 C12.1964408,21.1712262 12.1478971,21.2685389 12.0993534,21.3171952 C12.0508096,21.3658515 12.0508096,21.4145079 12.0508096,21.4145079 C12.0508096,21.4145079 12.1964408,21.3171952 12.4391594,21.1712262 C12.5847906,21.1225699 12.7304217,21.0252572 12.9245966,20.9766009 C13.0216841,20.9279446 13.1187715,20.9279446 13.215859,20.8792883 C13.2644027,20.8792883 13.3614901,20.8306319 13.3614901,20.8306319 L13.555665,20.8306319 C13.8469273,20.8306319 13.9925585,20.8306319 14.2352771,20.8792883 C14.4779957,20.9279446 14.6721706,21.0252572 14.9148892,21.1712262 C15.3517827,21.4145079 15.7401325,21.8037585 16.0799385,22.1930091 C16.2255697,22.3389781 16.3226571,22.5336034 16.4682883,22.6795724 C15.4974139,23.2634483 14.5750832,23.9932932 14.5750832,24.6744818 C14.5750832,25.598952 16.5653757,26.2314843 18.0216874,26.5720786 C18.8469306,29.1995203 20.4003297,29.6374272 21.225573,29.8807089 C21.4197478,29.9293652 21.9051851,29.8807089 22.5847972,29.7833962 C21.1770292,30.2699595 20.1090674,31.7296493 19.9634362,33.5785898 C19.817805,35.8654372 21.2741167,37.8116903 23.2158655,37.9090029 C25.1090707,38.0063156 26.7595572,36.2546878 26.9051883,33.9678404 C26.9537321,33.4812771 26.8566446,32.9947138 26.7595572,32.5081506 L28.0216939,30.7078664 L30.788686,35.6221555 C30.44888,36.2060314 30.2547051,36.88722 30.2061614,37.6657213 C30.0605302,39.9525687 31.5168419,41.8988218 33.4585907,41.9961344 C35.3517958,42.0934471 37.0022824,40.3418193 37.1479135,38.0549719 C37.245001,36.2546878 36.371214,34.6976853 35.0605335,34.065153 L36.5653889,29.2968329 C45.254715,31.3403987 59.3323941,34.5517163 61.613949,34.211122 C64.914922,33.7245587 76.8081337,32.4108379 75.5945407,31.4863677 C75.1091035,31.1457734 70.0605565,30.1726468 64.0896788,29.1022076 L60.740162,19.8575054 C65.788709,18.0085649 71.6139556,15.4297796 71.711043,15.3811232 C71.9537616,15.2351543 72.245024,15.1378416 72.2935677,14.8459036 C75.545997,14.8459036 78.6042514,14.0674024 78.6042514,14.0674024 C80.5460003,13.2402448 74.8178412,13.0942759 72.7790049,13.0456195 Z M64.6236597,16.1596245 L59.9149188,17.9112523 L59.3323941,16.3055935 C61.0314244,16.2569371 62.8760858,16.2082808 64.6236597,16.1596245 Z M57.439189,16.3542498 L58.2158885,18.5437845 L52.2935545,20.7819756 L58.3615197,18.9330352 L58.652782,19.7115364 C56.4683146,20.538694 54.1867597,21.3171952 52.0508359,22.0956965 L49.5265624,15.4784359 C52.1964671,16.1109682 54.0411285,16.5002188 54.5751094,16.4515625 C55.2061778,16.4029061 56.225596,16.4029061 57.439189,16.3542498 Z M41.7110233,25.8422337 L32.8275223,27.3019235 C32.876066,27.1559545 32.876066,27.0099855 32.9246098,26.8153602 L41.8566545,25.3070141 L47.4391824,22.922854 C47.4391824,22.922854 43.2644224,24.2365749 42.3906354,24.1879185 C41.5168484,24.1392622 42.3420917,22.2903218 41.8566545,21.9983838 C41.4683047,21.7551022 35.4003396,23.4580736 33.2644158,24.0419496 C33.3129595,22.776885 33.3129595,21.3658515 33.0216972,20.0034744 L37.6333507,18.0572213 L32.8275223,19.2249731 C32.6333474,18.4951282 32.3420851,17.8139396 31.9537353,17.1814074 C31.2255795,16.0136555 30.0605302,15.3324669 28.9440246,14.9432163 L33.2644158,14.2133714 C33.7013093,15.040529 34.9634461,17.0354384 36.5168451,17.0354384 C36.6624763,17.0354384 36.7595637,17.0354384 36.9051949,16.9867821 C38.6527689,16.5975314 38.5556814,14.2133714 38.458594,13.2402448 L39.3809247,12.9969632 C42.3420917,13.7754644 45.0119964,14.5053094 47.342095,15.040529 L50.303262,22.8255414 C45.5459773,24.4312002 41.8081108,25.744921 41.7110233,25.8422337 L41.7110233,25.8422337 Z M37.4877196,12.6563689 C36.3226703,12.218462 34.5265526,13.7268081 34.2352902,13.9700897 C34.0896591,13.7754644 33.9925716,13.5808391 33.9440279,13.4348701 L33.7983968,13.1429322 L27.0022758,14.2620277 L25.4974204,14.4079967 L20.7886795,15.6730612 L20.7886795,15.6730612 C20.351786,15.4297796 19.9148925,15.1864979 19.477999,14.89456 L16.3226571,6.52567163 C23.0216906,8.4232684 30.8372298,10.5641468 37.6333507,12.4130873 L37.3906321,12.4617436 L37.4877196,12.6563689 Z M50.5945243,23.6040426 L51.9052048,27.1072982 C48.6042317,26.5720786 45.7886959,26.0855153 44.2352968,25.8422337 C45.8372396,25.3070141 48.0702508,24.5285128 50.5945243,23.6040426 Z M47.8275322,15.040529 L48.895494,15.3811232 L53.0702541,29.1508639 L47.8275322,15.040529 Z M4.13818309,2.19525847 C2.73041518,1.75735153 1.95371564,1.51406989 1.95371564,1.51406989 C1.95371564,1.51406989 2.7789589,1.7086952 4.18672681,2.04928949 C5.59449473,2.38988379 7.63333102,2.87644706 10.0605171,3.46032299 C12.4877031,4.09285525 15.3517827,4.77404384 18.3614934,5.55254508 C21.3712041,6.33104632 24.6236334,7.20686021 27.8760628,8.08267411 C31.0799484,8.95848801 34.3323777,9.88295823 37.3420884,10.7101158 C40.3517991,11.5372734 43.1673349,12.4130873 45.594521,13.0942759 C48.0217071,13.7754644 50.0119996,14.4079967 51.4197676,14.8459036 C52.8275355,15.2838106 53.604235,15.5270922 53.604235,15.5270922 C53.604235,15.5270922 52.7789917,15.3324669 51.3712238,14.9918726 C49.9634559,14.6512783 47.9246196,14.1647151 45.4974336,13.5808391 C43.0702475,12.9483069 40.206168,12.2671183 37.1964572,11.488617 C34.1867465,10.7101158 30.9343172,9.8343019 27.6818879,8.95848801 C24.4780023,8.08267411 21.225573,7.15820389 18.2158622,6.33104632 C15.2061515,5.50388875 12.3906157,4.62807485 9.96342964,3.94688627 C7.53624358,3.21704135 5.54595101,2.5845091 4.13818309,2.19525847 Z M5.78866961,3.50897932 L6.80808776,3.75226096 L10.9828478,15.5270922 L5.78866961,3.50897932 Z" id="Shape"></path>
            </g>
        </g>
    </g>
</svg>