<?xml version="1.0" encoding="UTF-8"?>
<svg width="528px" height="577px" viewBox="0 0 528 577" version="1.1" xmlns="http://www.w3.org/2000/svg" xmlns:xlink="http://www.w3.org/1999/xlink">
    <title>Cloud4</title>
    <g id="Cloud4" stroke="none" stroke-width="1" fill="none" fill-rule="evenodd">
        <g id="Group" fill="#FFFFFF">
            <ellipse id="Oval" cx="230" cy="514" rx="68" ry="63"></ellipse>
            <ellipse id="Oval" cx="136" cy="514" rx="68" ry="63"></ellipse>
            <ellipse id="Oval" cx="185" cy="451" rx="68" ry="63"></ellipse>
            <ellipse id="Oval" cx="311" cy="435" rx="68" ry="63"></ellipse>
            <ellipse id="Oval" cx="428" cy="451" rx="68" ry="63"></ellipse>
            <ellipse id="Oval" cx="81" cy="464" rx="68" ry="63"></ellipse>
            <ellipse id="Oval" cx="460" cy="514" rx="68" ry="63"></ellipse>
            <ellipse id="Oval" cx="366" cy="505" rx="68" ry="63"></ellipse>
            <ellipse id="Oval" cx="298" cy="498" rx="68" ry="63"></ellipse>
            <ellipse id="Oval" cx="204" cy="304" rx="68" ry="63"></ellipse>
            <ellipse id="Oval" cx="434" cy="409" rx="68" ry="63"></ellipse>
            <ellipse id="Oval" cx="103" cy="280" rx="68" ry="63"></ellipse>
            <ellipse id="Oval" cx="307" cy="241" rx="68" ry="63"></ellipse>
            <ellipse id="Oval" cx="239" cy="123" rx="68" ry="63"></ellipse>
            <ellipse id="Oval" cx="311" cy="94" rx="68" ry="63"></ellipse>
            <ellipse id="Oval" cx="230" cy="63" rx="68" ry="63"></ellipse>
            <ellipse id="Oval" cx="162" cy="91" rx="68" ry="63"></ellipse>
            <ellipse id="Oval" cx="110" cy="142" rx="68" ry="63"></ellipse>
            <ellipse id="Oval" cx="360" cy="241" rx="68" ry="63"></ellipse>
            <ellipse id="Oval" cx="332" cy="167" rx="68" ry="63"></ellipse>
            <ellipse id="Oval" cx="117" cy="205" rx="68" ry="63"></ellipse>
            <ellipse id="Oval" cx="162" cy="167" rx="68" ry="63"></ellipse>
            <ellipse id="Oval" cx="239" cy="192" rx="68" ry="63"></ellipse>
            <ellipse id="Oval" cx="171" cy="241" rx="68" ry="63"></ellipse>
            <ellipse id="Oval" cx="264" cy="262" rx="68" ry="63"></ellipse>
            <ellipse id="Oval" cx="408" cy="338" rx="68" ry="63"></ellipse>
            <ellipse id="Oval" cx="68" cy="367" rx="68" ry="63"></ellipse>
            <ellipse id="Oval" cx="321" cy="316" rx="68" ry="63"></ellipse>
            <ellipse id="Oval" cx="353" cy="379" rx="68" ry="63"></ellipse>
            <ellipse id="Oval" cx="272" cy="338" rx="68" ry="63"></ellipse>
            <ellipse id="Oval" cx="159" cy="343" rx="68" ry="63"></ellipse>
            <ellipse id="Oval" cx="217" cy="401" rx="68" ry="63"></ellipse>
            <ellipse id="Oval" cx="128" cy="409" rx="68" ry="63"></ellipse>
        </g>
    </g>
</svg>